<svg width="25" height="25" viewBox="0 0 25 25" fill="none" xmlns="http://www.w3.org/2000/svg">
<path d="M24.0308 0.703613H1.73454C1.19834 0.703613 0.765137 1.13681 0.765137 1.67302V23.9693C0.765137 24.5055 1.19834 24.9387 1.73454 24.9387H24.0308C24.567 24.9387 25.0002 24.5055 25.0002 23.9693V1.67302C25.0002 1.13681 24.567 0.703613 24.0308 0.703613ZM23.0614 22.9999H17.4843V15.5536H20.6349L21.1074 11.8972H17.4843V9.56153C17.4843 8.50124 17.7781 7.78025 19.2959 7.78025H21.2316V4.50852C20.8954 4.46308 19.7472 4.36311 18.4083 4.36311C15.6152 4.36311 13.7036 6.06865 13.7036 9.198V11.8942H10.547V15.5506H13.7067V22.9999H2.70394V2.64242H23.0614V22.9999Z" fill="black"/>
</svg>
