<svg width="106" height="10" viewBox="0 0 106 10" fill="none" xmlns="http://www.w3.org/2000/svg">
<path d="M1.58851 5.8569H6.71808V4.40932H1.58851V1.44759H7.26413V0H0V10H1.58851V5.8569Z" fill="black"/>
<path d="M30.8436 8.55241H28.6594V1.44759H30.8436V0H24.8867V1.44759H27.0709V8.55241H24.8867V10H30.8436V8.55241Z" fill="black"/>
<path d="M49.2106 2.82862L55.2171 10H56.574V0H54.9689V7.28785L48.9789 0H47.6221V10H49.2106V2.82862Z" fill="black"/>
<path d="M79.6077 8.60233C80.6005 7.67055 81.0969 6.47255 81.0969 4.99168C81.0969 3.51082 80.6005 2.31281 79.6077 1.38103C78.6149 0.46589 77.2911 0 75.6199 0H72.145V10H75.6199C77.2911 10 78.6149 9.53411 79.6077 8.60233ZM73.7335 1.44759H75.6199C76.8113 1.44759 77.7545 1.78037 78.4494 2.42928C79.1444 3.0782 79.5084 3.94343 79.5084 4.99168C79.5084 6.03993 79.161 6.90516 78.4494 7.55408C77.7545 8.20299 76.7947 8.53577 75.6199 8.53577H73.7335V1.44759Z" fill="black"/>
<path d="M100.325 10H101.913V6.65557L106 0H104.164L101.135 5.00832L98.0742 0H96.3037L100.325 6.68885V10Z" fill="black"/>
</svg>
