<svg width="26" height="26" viewBox="0 0 26 26" fill="none" xmlns="http://www.w3.org/2000/svg">
<path fill-rule="evenodd" clip-rule="evenodd" d="M8.21408 0.649062C9.54425 0.587827 9.96837 0.574219 13.3567 0.574219C16.7451 0.574219 17.1692 0.588961 18.4983 0.649062C19.8273 0.709164 20.7345 0.921221 21.5283 1.22853C22.3595 1.54265 23.1136 2.03367 23.7373 2.6687C24.3723 3.29127 24.8622 4.04424 25.1752 4.87659C25.4837 5.67038 25.6946 6.57758 25.7558 7.90435C25.8171 9.23679 25.8307 9.66091 25.8307 13.0481C25.8307 16.4365 25.8159 16.8606 25.7558 18.1908C25.6957 19.5176 25.4837 20.4248 25.1752 21.2186C24.8622 22.051 24.3715 22.8052 23.7373 23.4287C23.1136 24.0638 22.3595 24.5536 21.5283 24.8666C20.7345 25.1751 19.8273 25.386 18.5005 25.4472C17.1692 25.5085 16.7451 25.5221 13.3567 25.5221C9.96837 25.5221 9.54425 25.5073 8.21408 25.4472C6.88731 25.3871 5.98011 25.1751 5.18632 24.8666C4.35388 24.5536 3.59966 24.0629 2.97616 23.4287C2.34156 22.8058 1.85047 22.0519 1.53713 21.2197C1.22981 20.4259 1.01889 19.5187 0.957656 18.1919C0.89642 16.8595 0.882812 16.4354 0.882812 13.0481C0.882812 9.65977 0.897554 9.23566 0.957656 7.90662C1.01776 6.57758 1.22981 5.67038 1.53713 4.87659C1.85093 4.04433 2.3424 3.29049 2.9773 2.66757C3.59991 2.0331 4.35337 1.54202 5.18518 1.22853C5.97898 0.921221 6.88617 0.710298 8.21295 0.649062H8.21408ZM18.3973 2.89437C17.0819 2.83427 16.6873 2.82179 13.3567 2.82179C10.0262 2.82179 9.63157 2.83427 8.31614 2.89437C7.09936 2.94993 6.43938 3.15292 5.99939 3.32415C5.41765 3.55095 5.00148 3.81971 4.56489 4.2563C4.15103 4.65892 3.83253 5.14907 3.63275 5.6908C3.46151 6.13079 3.25853 6.79077 3.20296 8.00754C3.14286 9.32298 3.13039 9.71761 3.13039 13.0481C3.13039 16.3787 3.14286 16.7733 3.20296 18.0887C3.25853 19.3055 3.46151 19.9655 3.63275 20.4055C3.83233 20.9464 4.15098 21.4374 4.56489 21.84C4.96746 22.2539 5.45848 22.5726 5.99939 22.7721C6.43938 22.9434 7.09936 23.1464 8.31614 23.2019C9.63157 23.262 10.0251 23.2745 13.3567 23.2745C16.6884 23.2745 17.0819 23.262 18.3973 23.2019C19.6141 23.1464 20.2741 22.9434 20.7141 22.7721C21.2958 22.5453 21.712 22.2766 22.1486 21.84C22.5625 21.4374 22.8811 20.9464 23.0807 20.4055C23.252 19.9655 23.4549 19.3055 23.5105 18.0887C23.5706 16.7733 23.5831 16.3787 23.5831 13.0481C23.5831 9.71761 23.5706 9.32298 23.5105 8.00754C23.4549 6.79077 23.252 6.13079 23.0807 5.6908C22.8539 5.10906 22.5852 4.69288 22.1486 4.2563C21.7459 3.84247 21.2558 3.52397 20.7141 3.32415C20.2741 3.15292 19.6141 2.94993 18.3973 2.89437ZM11.7635 16.8935C12.6533 17.2639 13.6441 17.3139 14.5666 17.0349C15.4892 16.756 16.2863 16.1654 16.8218 15.364C17.3573 14.5627 17.5979 13.6003 17.5027 12.6412C17.4074 11.6821 16.9821 10.7858 16.2995 10.1054C15.8643 9.67052 15.3381 9.33751 14.7587 9.13036C14.1794 8.92322 13.5613 8.84711 12.9491 8.9075C12.3368 8.96789 11.7455 9.16328 11.2178 9.47962C10.6901 9.79595 10.2391 10.2253 9.89727 10.7369C9.55544 11.2485 9.33128 11.8294 9.24093 12.438C9.15058 13.0466 9.19629 13.6676 9.37477 14.2564C9.55324 14.8452 9.86005 15.3871 10.2731 15.8431C10.6861 16.2991 11.1951 16.6579 11.7635 16.8935ZM8.82303 8.51444C9.41841 7.91906 10.1252 7.44679 10.9031 7.12457C11.681 6.80236 12.5148 6.63652 13.3567 6.63652C14.1987 6.63652 15.0325 6.80236 15.8104 7.12457C16.5883 7.44679 17.2951 7.91906 17.8904 8.51444C18.4858 9.10981 18.9581 9.81663 19.2803 10.5945C19.6025 11.3724 19.7684 12.2062 19.7684 13.0481C19.7684 13.8901 19.6025 14.7239 19.2803 15.5018C18.9581 16.2797 18.4858 16.9865 17.8904 17.5819C16.688 18.7843 15.0572 19.4598 13.3567 19.4598C11.6563 19.4598 10.0254 18.7843 8.82303 17.5819C7.62062 16.3794 6.94511 14.7486 6.94511 13.0481C6.94511 11.3477 7.62062 9.71685 8.82303 8.51444ZM21.1904 7.59137C21.3379 7.45219 21.456 7.28483 21.5377 7.09919C21.6194 6.91354 21.663 6.7134 21.666 6.51059C21.6689 6.30779 21.6312 6.10646 21.5549 5.91851C21.4787 5.73057 21.3655 5.55983 21.2221 5.41641C21.0787 5.273 20.9079 5.15981 20.72 5.08356C20.532 5.00731 20.3307 4.96955 20.1279 4.97251C19.9251 4.97546 19.7249 5.01908 19.5393 5.10078C19.3537 5.18247 19.1863 5.30058 19.0471 5.44812C18.7764 5.73506 18.6283 6.11618 18.634 6.51059C18.6398 6.90501 18.799 7.28165 19.0779 7.56057C19.3568 7.83949 19.7335 7.99873 20.1279 8.00448C20.5223 8.01023 20.9034 7.86204 21.1904 7.59137Z" fill="black"/>
</svg>
