<svg width="26" height="24" viewBox="0 0 26 24" fill="none" xmlns="http://www.w3.org/2000/svg">
<path d="M23.3342 0.576536C23.023 0.599178 22.7175 0.67219 22.4297 0.792722H22.4258C22.1495 0.90227 20.8359 1.45485 18.8389 2.29245L11.6824 5.30646C6.54727 7.46832 1.49937 9.59722 1.49937 9.59722L1.55948 9.57395C1.55948 9.57395 1.21145 9.68835 0.847906 9.93749C0.623313 10.0804 0.43005 10.2674 0.279811 10.4872C0.101433 10.7489 -0.0420444 11.1493 0.0112751 11.5633C0.0985251 12.2632 0.552225 12.683 0.877958 12.9147C1.20757 13.1493 1.52167 13.2588 1.52167 13.2588H1.52943L6.26322 14.8535C6.47553 15.5351 7.70576 19.5796 8.00144 20.5112C8.17594 21.0677 8.34559 21.4157 8.5579 21.6813C8.66066 21.8171 8.78087 21.9305 8.92532 22.0216C9.00041 22.0653 9.08048 22.0998 9.1638 22.1244L9.11533 22.1128C9.12987 22.1166 9.14151 22.1283 9.15217 22.1321C9.19095 22.1428 9.21712 22.1467 9.26656 22.1544C10.0159 22.3813 10.618 21.916 10.618 21.916L10.6519 21.8888L13.4468 19.344L18.1312 22.9377L18.2378 22.9833C19.214 23.4118 20.2029 23.1733 20.7254 22.7526C21.2518 22.3289 21.4564 21.787 21.4564 21.787L21.4903 21.6998L25.1102 3.15526C25.213 2.69768 25.2391 2.26919 25.1257 1.8533C25.0087 1.43239 24.7387 1.07038 24.3686 0.838286C24.0578 0.649356 23.6974 0.558164 23.3342 0.576536ZM23.2363 2.5639C23.2324 2.62497 23.244 2.61819 23.2169 2.73549V2.74615L19.6309 21.0977C19.6154 21.1239 19.5892 21.1811 19.5175 21.2383C19.4419 21.2984 19.3818 21.3362 19.0667 21.2112L13.3373 16.8186L9.87634 19.9732L10.6034 15.3295L19.9644 6.60454C20.3502 6.24585 20.2213 6.17023 20.2213 6.17023C20.2484 5.7301 19.6387 6.0413 19.6387 6.0413L7.83469 13.3538L7.83082 13.3344L2.17314 11.4295V11.4256L2.1586 11.4227C2.16851 11.4194 2.17823 11.4155 2.18768 11.411L2.2187 11.3955L2.24875 11.3849C2.24875 11.3849 7.30053 9.25597 12.4357 7.09411C15.0066 6.01124 17.597 4.92062 19.5892 4.07914C20.7707 3.58182 21.9534 3.0874 23.1374 2.59589C23.2169 2.56487 23.1791 2.56487 23.2363 2.56487V2.5639Z" fill="black"/>
</svg>
