<svg width="14" height="18" viewBox="0 0 14 18" fill="none" xmlns="http://www.w3.org/2000/svg">
<path d="M13.1761 13.0471L12.2876 4.51878H9.52297V2.8785C9.52297 1.29108 8.21201 0 6.60015 0C4.98829 0 3.67734 1.29108 3.67734 2.8785V4.51878H0.912739L0.0241688 13.0471C-0.10721 14.3104 0.312354 15.575 1.1762 16.5176C2.04005 17.4602 3.27472 18.0007 4.56379 18.0007H8.63652C9.92558 18.0007 11.1603 17.4602 12.0241 16.5176C12.8879 15.575 13.3082 14.3097 13.1761 13.0471ZM8.63652 16.9566H4.56379C3.57421 16.9566 2.6256 16.5413 1.96235 15.8178C1.2991 15.0944 0.976309 14.1226 1.07802 13.1529L1.86912 5.56222H3.67734V7.12042H4.73684V5.56222H8.46346V7.12042H9.52297V5.56222H11.3312L12.1223 13.1529C12.2233 14.1226 11.9012 15.0937 11.2379 15.8178C10.5747 16.542 9.62609 16.9566 8.63652 16.9566ZM8.46346 4.51878H4.73684V2.8785C4.73684 1.86636 5.57243 1.04344 6.60015 1.04344C7.62787 1.04344 8.46346 1.86636 8.46346 2.8785V4.51878Z" fill="black"/>
</svg>
