<svg width="17" height="16" viewBox="0 0 17 16" fill="none" xmlns="http://www.w3.org/2000/svg">
<path fill-rule="evenodd" clip-rule="evenodd" d="M8.24109 1.3C6.11479 1.3 4.39109 3.0237 4.39109 5.15C4.39109 7.2763 6.11479 9 8.24109 9C10.3674 9 12.0911 7.2763 12.0911 5.15C12.0911 3.0237 10.3674 1.3 8.24109 1.3ZM3.09109 5.15C3.09109 2.30573 5.39682 0 8.24109 0C11.0854 0 13.3911 2.30573 13.3911 5.15C13.3911 7.99427 11.0854 10.3 8.24109 10.3C5.39682 10.3 3.09109 7.99427 3.09109 5.15ZM14.8987 15.3H16.4822C14.7646 12.5573 11.7159 10.7333 8.2411 10.7333C4.76633 10.7333 1.71757 12.5573 0 15.3H1.58346C3.12299 13.3127 5.53264 12.0333 8.2411 12.0333C10.9496 12.0333 13.3592 13.3127 14.8987 15.3Z" fill="black"/>
</svg>
