<svg width="17" height="17" viewBox="0 0 17 17" fill="none" xmlns="http://www.w3.org/2000/svg">
<path fill-rule="evenodd" clip-rule="evenodd" d="M1.3 6.83811C1.3 3.7795 3.7795 1.3 6.83811 1.3C9.89672 1.3 12.3762 3.7795 12.3762 6.83811C12.3762 9.89672 9.89672 12.3762 6.83811 12.3762C3.7795 12.3762 1.3 9.89672 1.3 6.83811ZM6.83811 0C3.06153 0 0 3.06153 0 6.83811C0 10.6147 3.06153 13.6762 6.83811 13.6762C8.49233 13.6762 10.0094 13.0888 11.192 12.1112L15.9419 16.8612L16.8612 15.9419L12.1112 11.192C13.0888 10.0094 13.6762 8.49233 13.6762 6.83811C13.6762 3.06153 10.6147 0 6.83811 0Z" fill="black"/>
</svg>
